<svg width="60" height="60" viewBox="0 0 60 60" fill="none" xmlns="http://www.w3.org/2000/svg">
<rect width="60" height="60" rx="30" fill="#FFE999"/>
<path d="M30 31H41C41.5523 31 42 30.5523 42 30C42 29.4477 41.5523 29 41 29H30C29.4477 29 29 29.4477 29 30C29 30.5523 29.4477 31 30 31Z" fill="black" fill-opacity="0.8"/>
<path d="M30 23H41C41.5523 23 42 22.5523 42 22C42 21.4477 41.5523 21 41 21H30C29.4477 21 29 21.4477 29 22C29 22.5523 29.4477 23 30 23Z" fill="black" fill-opacity="0.8"/>
<path d="M30 39H41C41.5523 39 42 38.5523 42 38C42 37.4477 41.5523 37 41 37H30C29.4477 37 29 37.4477 29 38C29 38.5523 29.4477 39 30 39Z" fill="black" fill-opacity="0.8"/>
<path d="M26.1776 20.7354C26.1876 20.7263 26.1976 20.7166 26.2071 20.7071C26.3847 20.5295 26.489 20.2915 26.4992 20.0404L26.4992 20.039C26.4997 20.026 26.5 20.013 26.5 20C26.5 19.7488 26.4054 19.5068 26.2351 19.3221C26.226 19.3122 26.2166 19.3024 26.2071 19.2929C26.0295 19.1153 25.7915 19.011 25.5404 19.0008L25.539 19.0008C25.526 19.0003 25.513 19 25.5 19C25.2488 19 25.0068 19.0946 24.8221 19.2649L21.1635 22.6388L19.679 21.2658C19.4942 21.0949 19.2517 21 19 21C18.987 21 18.974 21.0003 18.961 21.0008C18.696 21.0111 18.4459 21.1263 18.2658 21.321C18.0949 21.5058 18 21.7483 18 22C18 22.013 18.0003 22.026 18.0008 22.039C18.0111 22.304 18.1263 22.5541 18.321 22.7342L20.4835 24.7342C20.8664 25.0882 21.4571 25.0887 21.8404 24.7351L26.1776 20.7354Z" fill="black" fill-opacity="0.8"/>
<path d="M26.1776 28.7354C26.1876 28.7263 26.1976 28.7166 26.2071 28.7071C26.3847 28.5295 26.489 28.2915 26.4992 28.0404L26.4992 28.039C26.4997 28.026 26.5 28.013 26.5 28C26.5 27.7488 26.4054 27.5068 26.2351 27.3221C26.226 27.3122 26.2166 27.3024 26.2071 27.2929C26.0295 27.1153 25.7915 27.011 25.5404 27.0008L25.539 27.0008C25.526 27.0003 25.513 27 25.5 27C25.2488 27 25.0068 27.0946 24.8221 27.2649L21.1635 30.6388L19.679 29.2658C19.4942 29.0949 19.2517 29 19 29C18.987 29 18.974 29.0003 18.961 29.0008C18.696 29.0111 18.4459 29.1263 18.2658 29.321C18.0949 29.5058 18 29.7483 18 30C18 30.013 18.0003 30.026 18.0008 30.039C18.0111 30.304 18.1263 30.5541 18.321 30.7342L20.4835 32.7342C20.8664 33.0882 21.4571 33.0887 21.8404 32.7351L26.1776 28.7354Z" fill="black" fill-opacity="0.8"/>
<path d="M26.1776 36.7354C26.1876 36.7263 26.1976 36.7166 26.2071 36.7071C26.3847 36.5295 26.489 36.2915 26.4992 36.0404L26.4992 36.039C26.4997 36.026 26.5 36.013 26.5 36C26.5 35.7488 26.4054 35.5068 26.2351 35.3221C26.226 35.3122 26.2166 35.3024 26.2071 35.2929C26.0295 35.1152 25.7915 35.011 25.5404 35.0008L25.539 35.0008C25.526 35.0003 25.513 35 25.5 35C25.2488 35 25.0068 35.0946 24.8221 35.2649L21.1635 38.6388L19.679 37.2658C19.4942 37.0949 19.2517 37 19 37C18.987 37 18.974 37.0003 18.961 37.0008C18.696 37.0111 18.4459 37.1263 18.2658 37.321C18.0949 37.5058 18 37.7483 18 38C18 38.013 18.0003 38.026 18.0008 38.039C18.0111 38.304 18.1263 38.5541 18.321 38.7342L20.4835 40.7342C20.8664 41.0882 21.4571 41.0887 21.8404 40.7351L26.1776 36.7354Z" fill="black" fill-opacity="0.8"/>
</svg>
